<svg id="圖層_1" data-name="圖層 1" xmlns="http://www.w3.org/2000/svg" viewBox="0 0 1920 1080"><defs><style>.cls-1{fill:#efefef;}.cls-2{fill:#fff;}.cls-3{fill:#dcdddd;}.cls-4{fill:#b5b5b6;}.cls-5{fill:#9fa0a0;}.cls-6{fill:#c9caca;}.cls-7{fill:#fcfeff;}</style></defs><title>bg</title><rect class="cls-1" width="1920" height="1080" rx="1.52" ry="1.52"/><path class="cls-2" d="M1370.46,958.8h-97.33A11.85,11.85,0,0,1,1261.29,947V917.63a11.85,11.85,0,0,1,11.84-11.83h16.66a4.84,4.84,0,0,0,4.84-4.84v-8.33a3.5,3.5,0,0,1,3.5-3.5h47.33a3.5,3.5,0,0,1,3.5,3.5V901a4.84,4.84,0,0,0,4.83,4.84h16.67a11.85,11.85,0,0,1,11.83,11.83V947A11.85,11.85,0,0,1,1370.46,958.8Zm-97.33-46a4.84,4.84,0,0,0-4.84,4.83V947a4.84,4.84,0,0,0,4.84,4.84h97.33a4.84,4.84,0,0,0,4.83-4.84V917.63a4.84,4.84,0,0,0-4.83-4.83h-16.67A11.85,11.85,0,0,1,1342,901v-4.83h-40.33V901a11.85,11.85,0,0,1-11.84,11.84Z"/><path class="cls-3" d="M1312.84,849.33h18.33a23.17,23.17,0,0,1,23.17,23.17v20.17a7,7,0,0,1-7,7h-50.67a7,7,0,0,1-7-7V872.5A23.17,23.17,0,0,1,1312.84,849.33Z"/><path class="cls-4" d="M1274.48,922h94.63a0,0,0,0,1,0,0v18a7,7,0,0,1-7,7h-80.67a7,7,0,0,1-7-7V922A0,0,0,0,1,1274.48,922Z"/><polygon class="cls-3" points="1050.99 957.12 1050.99 861.59 968.25 813.82 885.52 861.59 885.52 957.12 968.25 1004.88 1050.99 957.12"/><polygon class="cls-3" points="1643.38 682.33 1468.39 985.43 1818.38 985.43 1643.38 682.33"/><path class="cls-2" d="M1094.35,1029.11a2.53,2.53,0,0,1-1.77-.73,47.71,47.71,0,0,0-34-14.08,2.5,2.5,0,0,1,0-5,52.7,52.7,0,0,1,37.51,15.54,2.5,2.5,0,0,1-1.77,4.27Z"/><path class="cls-2" d="M1147.72,1061.28h-.26a52.73,52.73,0,0,1-37.51-15.53,2.5,2.5,0,0,1,3.54-3.54,47.72,47.72,0,0,0,34,14.07h.26a47.7,47.7,0,0,0,34-14l17.4-17.41a53,53,0,0,1,75,0,2.5,2.5,0,1,1-3.54,3.54,48,48,0,0,0-67.92,0l-17.41,17.41A52.65,52.65,0,0,1,1147.72,1061.28Z"/><path class="cls-2" d="M1325.67,1061.28h-.26a52.73,52.73,0,0,1-37.51-15.53,2.5,2.5,0,0,1,3.54-3.54,47.74,47.74,0,0,0,34,14.07h.26a47.7,47.7,0,0,0,33.95-14l17.41-17.41a53,53,0,0,1,75,0,2.5,2.5,0,1,1-3.54,3.54,48,48,0,0,0-67.92,0l-17.41,17.41A52.65,52.65,0,0,1,1325.67,1061.28Z"/><path class="cls-2" d="M1503.62,1061.28h-.26a52.73,52.73,0,0,1-37.51-15.53,2.5,2.5,0,1,1,3.54-3.54,47.74,47.74,0,0,0,34,14.07h.26a2.5,2.5,0,0,1,0,5Z"/><path class="cls-2" d="M1058.61,1061.28a2.5,2.5,0,0,1,0-5,47.74,47.74,0,0,0,34-14.07l17.37-17.37a52.7,52.7,0,0,1,37.51-15.54h.26a52.62,52.62,0,0,1,37.48,15.52,2.5,2.5,0,0,1-3.53,3.54,47.67,47.67,0,0,0-34-14.06h-.26a47.69,47.69,0,0,0-34,14.08l-17.37,17.37A52.73,52.73,0,0,1,1058.61,1061.28Z"/><path class="cls-2" d="M1236.56,1061.28a52.66,52.66,0,0,1-37.49-15.52,2.5,2.5,0,1,1,3.54-3.53,48,48,0,0,0,67.92,0l17.37-17.37a52.7,52.7,0,0,1,37.51-15.54h.26a52.62,52.62,0,0,1,37.48,15.52,2.5,2.5,0,0,1-3.53,3.54,47.67,47.67,0,0,0-33.95-14.06h-.26a47.71,47.71,0,0,0-34,14.08l-17.37,17.37A52.73,52.73,0,0,1,1236.56,1061.28Z"/><path class="cls-2" d="M1414.51,1061.28a52.62,52.62,0,0,1-37.48-15.52,2.5,2.5,0,0,1,3.53-3.53,48,48,0,0,0,67.92,0l17.37-17.37a52.7,52.7,0,0,1,37.51-15.54h.26a2.5,2.5,0,0,1,0,5h-.26a47.71,47.71,0,0,0-34,14.08L1452,1045.75A52.73,52.73,0,0,1,1414.51,1061.28Z"/><path class="cls-2" d="M889,1080H869A111.12,111.12,0,0,1,980,969h940v20H980A91.1,91.1,0,0,0,889,1080Z"/><rect class="cls-5" x="1315.05" y="1024.66" width="21.27" height="21.27"/><rect class="cls-3" x="36.82" y="697.94" width="40.5" height="40.5"/><circle class="cls-3" cx="343.55" cy="914.4" r="140.74"/><circle class="cls-3" cx="185.12" cy="598.59" r="37.17"/><circle class="cls-6" cx="1056.94" cy="1035.87" r="11.62"/><circle class="cls-6" cx="1415.61" cy="1035.87" r="11.62"/><polygon class="cls-6" points="1234.46 1021.79 1221.79 1043.75 1247.14 1043.75 1234.46 1021.79"/><polygon class="cls-5" points="1159.79 1042.33 1159.79 1028.26 1147.6 1021.22 1135.41 1028.26 1135.41 1042.33 1147.6 1049.37 1159.79 1042.33"/><polygon class="cls-5" points="1515.81 1042.33 1515.81 1028.26 1503.62 1021.22 1491.43 1028.26 1491.43 1042.33 1503.62 1049.37 1515.81 1042.33"/><polygon class="cls-3" points="1606 564.87 1606 530.21 1575.98 512.88 1545.97 530.21 1545.97 564.87 1575.98 582.19 1606 564.87"/><path class="cls-7" d="M1068.25,779a2.69,2.69,0,0,0-2,4.52l12.06,12.94a26.9,26.9,0,0,1,7.22,18.36V927.89a23.39,23.39,0,0,0,23.36,23.36l76.83.25a23.38,23.38,0,0,0,23.35-23.35V815.08a26.83,26.83,0,0,1,7.22-18.35l12.05-13a2.69,2.69,0,0,0-2-4.52h-48.09L1068.25,779Zm117.5,178.74-76.84-.25a29.64,29.64,0,0,1-29.59-29.61V814.83a20.63,20.63,0,0,0-5.55-14.1l-12-12.94a8.93,8.93,0,0,1,6.54-15l110.07.25h48.08a8.94,8.94,0,0,1,6.55,15l-12.06,13a20.64,20.64,0,0,0-5.54,14.09V928.15a29.64,29.64,0,0,1-29.61,29.6Z"/><path class="cls-3" d="M1095.86,847.27v80.62A13.08,13.08,0,0,0,1108.93,941l76.82.26a13.08,13.08,0,0,0,13.06-13.06V847.27Z"/><path class="cls-2" d="M1186.6,798.43h-39.36a2.39,2.39,0,0,0-2.39,2.38v.6a2.39,2.39,0,0,0,2.39,2.38h39.36a2.39,2.39,0,0,0,2.39-2.38v-.6a2.39,2.39,0,0,0-2.39-2.38Z"/><path class="cls-2" d="M1186.6,829.83h-39.36a2.39,2.39,0,0,0-2.39,2.38v.6a2.4,2.4,0,0,0,2.39,2.39h39.36a2.4,2.4,0,0,0,2.39-2.39v-.6a2.39,2.39,0,0,0-2.39-2.38Z"/><path class="cls-2" d="M1186.6,861.23h-39.36a2.39,2.39,0,0,0-2.39,2.38v.6a2.4,2.4,0,0,0,2.39,2.39h39.36a2.4,2.4,0,0,0,2.39-2.39v-.6a2.39,2.39,0,0,0-2.39-2.38Z"/><path class="cls-2" d="M1186.6,892.63h-39.36a2.39,2.39,0,0,0-2.39,2.39v.59a2.4,2.4,0,0,0,2.39,2.39h39.36a2.4,2.4,0,0,0,2.39-2.39V895a2.4,2.4,0,0,0-2.39-2.39Z"/><path class="cls-2" d="M1186.6,924h-39.36a2.4,2.4,0,0,0-2.39,2.39v.6a2.39,2.39,0,0,0,2.39,2.38h39.36A2.39,2.39,0,0,0,1189,927v-.6a2.4,2.4,0,0,0-2.39-2.39Z"/><path class="cls-7" d="M84.64,855.67v44.94l-2,.78c-27.85,11-45.84,36.81-45.84,65.67,0,39.17,33.26,71,74.15,71s74.15-31.86,74.15-71c0-28.86-18-54.64-45.84-65.67l-2-.78V855.67ZM111,1044.35c-44.33,0-80.4-34.67-80.4-77.29,0-30.75,18.69-58.27,47.82-70.67v-47h65.17v47c29.12,12.4,47.82,39.92,47.82,70.67,0,42.62-36.07,77.29-80.41,77.29Z"/><path class="cls-6" d="M55.63,935.44a59.11,59.11,0,0,0-9.18,31.62c0,33.86,28.94,61.41,64.52,61.41s64.53-27.55,64.53-61.41a59.12,59.12,0,0,0-9.19-31.62Z"/><path class="cls-4" d="M127.89,827.3H94.31a6.85,6.85,0,0,0-6.79,7.75l3.4,25.58a6.86,6.86,0,0,0,6.8,5.94h26.76a6.84,6.84,0,0,0,6.79-5.94l3.41-25.58a6.85,6.85,0,0,0-6.79-7.75Z"/><polygon class="cls-7" points="154.58 855.67 67.36 855.67 67.36 849.42 154.58 849.42 154.58 855.67 154.58 855.67"/><path class="cls-7" d="M457.27,922.77v39.39l-24.84,43a6.62,6.62,0,0,0,5.74,9.93H495a6.62,6.62,0,0,0,5.74-9.93l-24.84-43V922.77ZM495,1021.36H438.17A12.87,12.87,0,0,1,427,1002.05l24-41.57v-44h31.13v44l24,41.57A12.87,12.87,0,0,1,495,1021.36Z"/><path class="cls-6" d="M475.79,973.43H457.38l-20,34.61a.89.89,0,0,0,.77,1.34H495a.89.89,0,0,0,.77-1.34l-20-34.61Z"/><polygon class="cls-7" points="487.66 922.77 445.51 922.77 445.51 916.52 487.66 916.52 487.66 922.77 487.66 922.77"/><path class="cls-7" d="M291.41,926.45v44.23l-1.91.81a34.35,34.35,0,1,0,26.59-.12l-1.92-.8V926.45ZM303,1043.7a40.6,40.6,0,0,1-17.8-77.09V920.2h35.27v46.25A40.6,40.6,0,0,1,303,1043.7Z"/><path class="cls-4" d="M279.74,995.29a24.65,24.65,0,1,0,46.41,0Z"/><polygon class="cls-7" points="327.93 926.45 277.64 926.45 277.64 920.2 327.93 920.2 327.93 926.45 327.93 926.45"/><polygon class="cls-7" points="1628.59 1088 1622.34 1088 1622.34 879.89 1628.59 879.89 1628.59 1088 1628.59 1088"/><polygon class="cls-7" points="1870.17 1088 1863.91 1088 1863.91 879.89 1870.17 879.89 1870.17 1088 1870.17 1088"/><path class="cls-7" d="M1657,889.7v112.59a15.08,15.08,0,0,0,30.16,0V889.7ZM1672,1023.62a21.36,21.36,0,0,1-21.33-21.33V883.45h42.66v118.84a21.36,21.36,0,0,1-21.33,21.33Z"/><path class="cls-4" d="M1664.55,920.84v81.45a7.49,7.49,0,0,0,15,0V920.84Z"/><polygon class="cls-7" points="1702.38 889.7 1643.38 889.7 1643.38 883.45 1702.38 883.45 1702.38 889.7 1702.38 889.7"/><path class="cls-7" d="M1727.68,889.7v112.59a15.08,15.08,0,0,0,30.16,0V889.7Zm15.08,133.92a21.36,21.36,0,0,1-21.33-21.33V883.45h42.67v118.84a21.36,21.36,0,0,1-21.34,21.33Z"/><path class="cls-2" d="M1735.27,920.84v81.45a7.49,7.49,0,0,0,15,0V920.84Z"/><polygon class="cls-7" points="1773.11 889.7 1714.11 889.7 1714.11 883.45 1773.11 883.45 1773.11 889.7 1773.11 889.7"/><path class="cls-7" d="M1800,889.7v112.59a15.08,15.08,0,0,0,30.16,0V889.7Zm15.08,133.92a21.36,21.36,0,0,1-21.33-21.33V883.45h42.67v118.84a21.36,21.36,0,0,1-21.34,21.33Z"/><path class="cls-4" d="M1807.6,920.84v81.45a7.49,7.49,0,0,0,15,0V920.84Z"/><polygon class="cls-7" points="1845.44 889.7 1786.43 889.7 1786.43 883.45 1845.44 883.45 1845.44 889.7 1845.44 889.7"/><polygon class="cls-7" points="1894.71 911.38 1598.66 911.38 1598.66 905.13 1894.71 905.13 1894.71 911.38 1894.71 911.38"/><path class="cls-7" d="M1639.1,908.79a13.67,13.67,0,1,1-13.67-13.67,13.67,13.67,0,0,1,13.67,13.67Z"/><path class="cls-3" d="M1631.05,908.79a5.62,5.62,0,1,1-5.62-5.62,5.61,5.61,0,0,1,5.62,5.62Z"/><path class="cls-7" d="M1880.73,908.79a13.66,13.66,0,1,1-13.66-13.67,13.66,13.66,0,0,1,13.66,13.67Z"/><path class="cls-3" d="M1872.69,908.79a5.62,5.62,0,1,1-5.62-5.62,5.62,5.62,0,0,1,5.62,5.62Z"/><polygon class="cls-7" points="878.05 1058.78 0 1058.78 0 1052.53 878.05 1052.53 878.05 1058.78 878.05 1058.78"/><polygon class="cls-7" points="413.67 1057.02 407.42 1057.02 407.42 817.77 413.67 817.77 413.67 1057.02 413.67 1057.02"/><polygon class="cls-7" points="836.44 1057.29 830.19 1057.29 830.19 818.05 836.44 818.05 836.44 1057.29 836.44 1057.29"/><polygon class="cls-7" points="871.01 855.31 374.49 855.31 374.49 849.06 871.01 849.06 871.01 855.31 871.01 855.31"/><polygon class="cls-7" points="503.13 950.36 382.14 950.36 382.14 944.1 503.13 944.1 503.13 950.36 503.13 950.36"/><path class="cls-7" d="M425,948.54a15.24,15.24,0,1,1-15.24-15.24A15.24,15.24,0,0,1,425,948.54Z"/><path class="cls-3" d="M416,948.54a6.27,6.27,0,1,1-6.26-6.27,6.26,6.26,0,0,1,6.26,6.27Z"/><path class="cls-7" d="M424.42,854a15.24,15.24,0,1,1-15.24-15.24A15.24,15.24,0,0,1,424.42,854Z"/><path class="cls-3" d="M415.45,854a6.27,6.27,0,1,1-6.27-6.26,6.27,6.27,0,0,1,6.27,6.26Z"/><path class="cls-7" d="M849.93,854a15.24,15.24,0,1,1-15.24-15.24A15.24,15.24,0,0,1,849.93,854Z"/><path class="cls-3" d="M841,854a6.27,6.27,0,1,1-6.26-6.26A6.27,6.27,0,0,1,841,854Z"/><polygon class="cls-7" points="611.66 1043.37 580.42 1043.37 580.42 1055.45 611.66 1055.45 611.66 1043.37 611.66 1043.37"/><path class="cls-2" d="M608.36,1019.06c0-9.17-13.16-21.31-13.16-21.31s-13.15,12.14-13.15,21.31,5.89,16.6,13.15,16.6,13.16-7.43,13.16-16.6Z"/><polygon class="cls-7" points="707.34 1043.58 676.1 1043.58 676.1 1055.65 707.34 1055.65 707.34 1043.58 707.34 1043.58"/><path class="cls-2" d="M704,1019.26c0-9.16-13.15-21.3-13.15-21.3s-13.16,12.14-13.16,21.3,5.89,16.61,13.16,16.61,13.15-7.44,13.15-16.61Z"/><path class="cls-7" d="M583.65,841V910.1l-2,.78c-13.62,5.4-22.43,18-22.43,32.09,0,19.15,16.29,34.73,36.32,34.73s36.31-15.58,36.31-34.73c0-14.1-8.8-26.69-22.43-32.09l-2-.78V841ZM595.56,984C572.08,984,553,965.57,553,943c0-16,9.51-30.31,24.41-37.06V834.75h36.32v71.16c14.89,6.75,24.4,21.08,24.4,37.06,0,22.6-19.09,41-42.56,41Z"/><path class="cls-4" d="M572.66,931.33a24.54,24.54,0,0,0-3.8,13.08c0,14,12,25.41,26.7,25.41s26.69-11.4,26.69-25.41a24.45,24.45,0,0,0-3.8-13.08Z"/><polygon class="cls-7" points="623.28 841.01 569.16 841.01 569.16 834.75 623.28 834.75 623.28 841.01 623.28 841.01"/><path class="cls-7" d="M679.78,841V910.1l-2,.78c-13.63,5.4-22.43,18-22.43,32.09,0,19.15,16.29,34.73,36.31,34.73S728,962.12,728,943c0-14.09-8.8-26.69-22.43-32.09l-2-.78V841ZM691.69,984c-23.47,0-42.57-18.38-42.57-41,0-16,9.51-30.31,24.41-37.06V834.75h36.32v71.16c14.9,6.75,24.41,21.08,24.41,37.06,0,22.6-19.1,41-42.57,41Z"/><path class="cls-4" d="M668.8,931.33a24.45,24.45,0,0,0-3.8,13.08c0,14,12,25.41,26.69,25.41s26.69-11.4,26.69-25.41a24.45,24.45,0,0,0-3.8-13.08Z"/><polygon class="cls-7" points="719.41 841.01 665.29 841.01 665.29 834.75 719.41 834.75 719.41 841.01 719.41 841.01"/><path class="cls-7" d="M699.61,838.8h-6.25a30.77,30.77,0,0,0-30.74-30.74H624.39a30.77,30.77,0,0,0-30.74,30.74H587.4a37,37,0,0,1,37-37h38.23a37,37,0,0,1,37,37Z"/><path class="cls-7" d="M767.35,879.62v133.16a16.26,16.26,0,0,0,32.52,0V879.62Zm16.26,155.67a22.54,22.54,0,0,1-22.52-22.51V873.37h45v139.41a22.54,22.54,0,0,1-22.52,22.51Z"/><path class="cls-2" d="M775.14,927.84v84.94a8.47,8.47,0,0,0,16.94,0V927.84Z"/><polygon class="cls-7" points="864.18 908.02 740.19 908.02 740.19 901.77 864.18 901.77 864.18 908.02 864.18 908.02"/><path class="cls-7" d="M849.93,905.39a15.24,15.24,0,1,1-15.24-15.24,15.25,15.25,0,0,1,15.24,15.24Z"/><path class="cls-3" d="M841,905.39a6.27,6.27,0,1,1-6.26-6.27,6.26,6.26,0,0,1,6.26,6.27Z"/><polygon class="cls-3" points="1863.91 654.81 1772.03 746.69 1863.91 838.57 1920 782.49 1920 710.89 1863.91 654.81"/></svg>