<svg id="圖層_1" data-name="圖層 1" xmlns="http://www.w3.org/2000/svg" viewBox="0 0 585.33 244.67"><defs><style>.cls-1{fill:#1d2087;}.cls-2{fill:none;stroke:#036eb7;stroke-miterlimit:10;stroke-width:8px;}.cls-3{fill:#f29600;}</style></defs><title>lablogo</title><path class="cls-1" d="M281.41,88.7h-3L265.18,58.19q-2.76-6.3-5.51-13.71h-.32q.56,10.65.56,19.51V88.7h-6.42V37.6h9.25l12.41,28.91q2.12,5,4.68,12h.2q2.84-7.75,4.68-12L297.12,37.6h9.25V88.7H300V64q0-8.67.55-19.51h-.31q-2.91,7.83-5.51,13.71Z"/><path class="cls-1" d="M370.08,63.19a31.66,31.66,0,0,1-1.72,10.66,24.12,24.12,0,0,1-4.92,8.36,22.49,22.49,0,0,1-7.72,5.48,25,25,0,0,1-10.09,2,25.92,25.92,0,0,1-10.35-2,21.92,21.92,0,0,1-7.74-5.48,24.11,24.11,0,0,1-4.84-8.36A32.43,32.43,0,0,1,321,63.19a31.83,31.83,0,0,1,1.73-10.71,24.66,24.66,0,0,1,4.93-8.39,22.17,22.17,0,0,1,7.71-5.48,25.29,25.29,0,0,1,10.16-2,25.69,25.69,0,0,1,10.29,2,21.93,21.93,0,0,1,7.72,5.48,24.16,24.16,0,0,1,4.84,8.39A32.6,32.6,0,0,1,370.08,63.19Zm-6.38,0a27.13,27.13,0,0,0-1.39-9.09,18.76,18.76,0,0,0-3.84-6.57,16,16,0,0,0-5.78-4,19.45,19.45,0,0,0-14.29,0,16,16,0,0,0-5.77,4,18.76,18.76,0,0,0-3.84,6.57,27.13,27.13,0,0,0-1.39,9.09,26.7,26.7,0,0,0,1.41,9.07,18.85,18.85,0,0,0,3.86,6.55,15.84,15.84,0,0,0,5.77,4,18.93,18.93,0,0,0,7.19,1.34,18.47,18.47,0,0,0,7.1-1.34,16,16,0,0,0,5.74-4,18.67,18.67,0,0,0,3.84-6.55A27,27,0,0,0,363.7,63.19Z"/><path class="cls-1" d="M402.05,88.7h-6.42V43.22H378V37.6h41.62v5.62h-17.6Z"/><path class="cls-1" d="M431.15,88.7V37.6h6.42V88.7Z"/><path class="cls-1" d="M501.28,63.19a31.91,31.91,0,0,1-1.72,10.66,24.43,24.43,0,0,1-4.92,8.36,22.49,22.49,0,0,1-7.72,5.48,25,25,0,0,1-10.1,2,26,26,0,0,1-10.35-2,21.88,21.88,0,0,1-7.73-5.48,24.13,24.13,0,0,1-4.85-8.36,32.43,32.43,0,0,1-1.68-10.66A31.58,31.58,0,0,1,454,52.48a24.8,24.8,0,0,1,4.92-8.39,22.3,22.3,0,0,1,7.72-5.48,25.26,25.26,0,0,1,10.16-2,25.76,25.76,0,0,1,10.29,2,22,22,0,0,1,7.71,5.48,24.18,24.18,0,0,1,4.85,8.39A32.6,32.6,0,0,1,501.28,63.19Zm-6.38,0a27.12,27.12,0,0,0-1.4-9.09,18.61,18.61,0,0,0-3.84-6.57,15.92,15.92,0,0,0-5.77-4,19.45,19.45,0,0,0-14.29,0,15.92,15.92,0,0,0-5.77,4A18.61,18.61,0,0,0,460,54.1a27.12,27.12,0,0,0-1.4,9.09A26.45,26.45,0,0,0,460,72.26a18.7,18.7,0,0,0,3.86,6.55,15.75,15.75,0,0,0,5.77,4,18.91,18.91,0,0,0,7.18,1.34,18.52,18.52,0,0,0,7.11-1.34,15.86,15.86,0,0,0,5.73-4,18.52,18.52,0,0,0,3.84-6.55A27,27,0,0,0,494.9,63.19Z"/><path class="cls-1" d="M543.37,66.09q4.85,6.76,9.57,13.91h.23q-.51-7.45-.51-15.21V37.6h6.46V88.7H552.7L532,60.21q-5.35-7.44-9.57-13.9h-.24q.51,7,.52,16.31V88.7h-6.42V37.6h6.38Z"/><ellipse class="cls-2" cx="119.5" cy="122.33" rx="39.69" ry="108.33"/><ellipse class="cls-2" cx="119.5" cy="122.33" rx="108.33" ry="39.69" transform="translate(-45.16 76.14) rotate(-30)"/><ellipse class="cls-2" cx="119.5" cy="122.33" rx="39.69" ry="108.33" transform="translate(-46.19 164.66) rotate(-60)"/><circle class="cls-3" cx="119.5" cy="122.33" r="22.53"/><circle class="cls-3" cx="183.06" cy="58.35" r="11.44"/><circle class="cls-3" cx="91.7" cy="201.29" r="9.69"/><polygon class="cls-1" points="399.75 214.08 375.08 104.08 369.11 104.08 349.89 104.08 343.92 104.08 319.25 214.08 346.43 214.08 359.5 150.68 372.57 214.08 399.75 214.08"/><polygon class="cls-1" points="282.08 191.08 282.08 104.08 252.58 104.08 252.58 214.08 282.08 214.08 314.58 214.08 314.58 191.08 282.08 191.08"/><polygon class="cls-1" points="559.83 122.33 559.83 104.08 512.58 104.08 494.33 122.33 494.33 170.58 509.08 170.58 523.83 170.58 526.83 170.58 526.83 195.83 494.33 195.83 494.33 214.08 541.58 214.08 559.83 195.83 559.83 147.58 541.58 147.58 526.83 147.58 523.83 147.58 523.83 122.33 559.83 122.33"/><path class="cls-1" d="M480.63,122.33l-18.25-18.25H409.25v110h53.13l18.25-18.25h.12v-73.5ZM457,144.58l-14.5,14.5,14.5,14.5v22.25H438.75v-73.5H457Z"/></svg>