<svg id="圖層_1" data-name="圖層 1" xmlns="http://www.w3.org/2000/svg" viewBox="0 0 20 20"><defs><style>.cls-1{fill:#036eb8;}</style></defs><title>pw</title><path class="cls-1" d="M5.92,12.25a1,1,0,0,1-1-1V7.17a5.08,5.08,0,0,1,10.16,0,1,1,0,0,1-2,0,3.08,3.08,0,1,0-6.16,0v4.08A1,1,0,0,1,5.92,12.25Z"/><path class="cls-1" d="M14.25,8.71H5.75a2.08,2.08,0,0,0-2.08,2.08v5.53a2.09,2.09,0,0,0,2.08,2.09h8.5a2.09,2.09,0,0,0,2.08-2.09V10.79A2.08,2.08,0,0,0,14.25,8.71ZM10,16.24a1.82,1.82,0,0,1-.95-3.38v-1a.95.95,0,1,1,1.9,0v1a1.85,1.85,0,0,1,.88,1.55A1.83,1.83,0,0,1,10,16.24Z"/></svg>